<svg width="64" height="64" viewBox="0 0 64 64" fill="none" xmlns="http://www.w3.org/2000/svg">
<path fill-rule="evenodd" clip-rule="evenodd" d="M44.4385 4.97204C43.4635 4.48154 42.6665 4.97754 42.6665 6.07404V49.6865L60.4555 58.635C62.413 59.6195 64 58.9305 64 57.0955V15.0975C64 14.922 63.901 14.761 63.745 14.682L44.4385 4.97204Z" fill="#00FC87"/>
<path fill-rule="evenodd" clip-rule="evenodd" d="M21.3335 38.9554L41.628 5.77793C42.199 4.84393 43.464 4.48143 44.4385 4.97193L63.767 14.6934C63.8925 14.7569 63.937 14.9144 63.8635 15.0344L42.6665 49.6859L21.3335 38.9554Z" fill="#00E468"/>
<path fill-rule="evenodd" clip-rule="evenodd" d="M2.95352 5.56594C1.32852 4.74844 0.778517 5.35294 1.73052 6.90944L21.3335 38.9549L42.6665 49.6854L21.3795 14.8854C21.3495 14.8364 21.306 14.7969 21.2545 14.7709L2.95352 5.56594Z" fill="#00C860"/>
<path fill-rule="evenodd" clip-rule="evenodd" d="M21.3335 57.0951C21.3335 58.9221 20.004 59.7486 18.38 58.9316L1.772 50.5776C0.7975 50.0871 0 48.7891 0 47.6926V6.73809C0 5.27609 1.0635 4.61509 2.363 5.26909L21.2185 14.7531C21.289 14.7886 21.3335 14.8606 21.3335 14.9396V57.0951Z" fill="#00AC68"/>
</svg>
