<svg width="64" height="53" viewBox="0 0 64 53" fill="none" xmlns="http://www.w3.org/2000/svg">
<path d="M64 6.15554C61.6454 7.2018 59.1168 7.90798 56.4581 8.22206C59.1688 6.59765 61.2513 4.02501 62.2336 0.96024C59.6949 2.46262 56.8862 3.55889 53.8955 4.14504C51.4989 1.5944 48.086 0 44.3071 0C37.0553 0 31.1798 5.87747 31.1798 13.1293C31.1798 14.1575 31.2938 15.1618 31.5179 16.122C20.6052 15.5739 10.9307 10.3466 4.45311 2.4026C3.32483 4.34309 2.67667 6.59765 2.67667 9.00425C2.67667 13.5614 4.99525 17.5784 8.51613 19.935C6.36559 19.865 4.34109 19.2768 2.57064 18.2926C2.56864 18.3466 2.56864 18.4046 2.56864 18.4566C2.56864 24.8202 7.09377 30.1275 13.1013 31.3338C12.001 31.6319 10.8407 31.7939 9.64241 31.7939C8.7942 31.7939 7.97399 31.7119 7.17379 31.5599C8.84221 36.7732 13.6934 40.5701 19.4369 40.6782C14.9457 44.199 9.28432 46.3016 3.13278 46.3016C2.07252 46.3016 1.02626 46.2396 0 46.1175C5.80945 49.8385 12.7112 52.013 20.127 52.013C44.2771 52.013 57.4864 32.006 57.4864 14.6537C57.4864 14.0855 57.4704 13.5174 57.4464 12.9532C60.013 11.1028 62.2376 8.7922 64 6.15554Z" fill="#55ACEE"/>
</svg>
